<svg width="25" height="27" viewBox="0 0 25 27" fill="none" xmlns="http://www.w3.org/2000/svg">
<path d="M23.11 19.543C22.144 18.383 20.338 16.637 20.338 10.919C20.414 8.96259 19.8225 7.03848 18.6606 5.46262C17.4987 3.88676 15.8355 2.75282 13.944 2.24701C14.262 2.26501 15.144 2.55501 13.635 2.15301L13.242 2.04601C12.4054 1.94157 11.5563 2.00964 10.747 2.24601C8.85451 2.75113 7.19012 3.88504 6.0274 5.46139C4.86467 7.03773 4.27279 8.96273 4.34903 10.92C4.34903 16.637 2.54903 18.383 1.57903 19.543C1.29609 19.8838 1.14366 20.3141 1.14903 20.757C1.12633 21.2058 1.28165 21.6455 1.58123 21.9805C1.88081 22.3154 2.30047 22.5187 2.74903 22.546H21.936C22.3847 22.5189 22.8045 22.3158 23.1041 21.9807C23.4038 21.6457 23.559 21.2059 23.536 20.757C23.5426 20.3146 23.3916 19.8843 23.11 19.543V19.543Z" stroke="white" stroke-width="2"/>
<path d="M13 26.139C11.3458 26.139 10 25.4662 10 24.6392C10 24.4676 10.0575 24.2993 10.1709 24.139C10.5938 24.7372 11.7303 25.1391 13 25.1391C14.2693 25.1391 15.4062 24.7372 15.8292 24.139C15.9429 24.2999 16 24.4682 16 24.6392C16 25.4662 14.6542 26.139 13 26.139Z" fill="white"/>
</svg>
