<svg width="39" height="32" viewBox="0 0 39 32" fill="none" xmlns="http://www.w3.org/2000/svg">
<path d="M2.56914 16.2908L5.23308 5.9195C4.71258 5.55807 4.31949 5.04153 4.10987 4.44353C3.90024 3.84552 3.88479 3.1966 4.06571 2.5893C4.24663 1.982 4.61468 1.44733 5.11738 1.06153C5.62009 0.675737 6.23177 0.45852 6.8652 0.440858C7.49863 0.423196 8.12147 0.60599 8.64489 0.963172C9.16831 1.32035 9.56559 1.83369 9.78007 2.42996C9.99454 3.02624 10.0153 3.67502 9.8393 4.28377C9.66332 4.89252 9.29962 5.43017 8.80007 5.82004L11.1729 9.02831C11.6634 9.55229 12.3076 9.90705 13.0127 10.0415C13.7177 10.1759 14.4472 10.0831 15.0961 9.77634C16.3157 9.37827 17.4537 8.76395 18.4557 7.96276L19.0789 8.29212C18.7878 7.72281 18.6856 7.07555 18.7872 6.44425C18.8888 5.81294 19.1889 5.23043 19.644 4.78122C20.099 4.33201 20.6854 4.03947 21.318 3.94604C21.9505 3.85261 22.5964 3.96315 23.1619 4.26162C23.7274 4.56009 24.1831 5.03097 24.4629 5.60594C24.7426 6.18092 24.8319 6.83008 24.7178 7.45924C24.6037 8.0884 24.2921 8.66485 23.8282 9.10494C23.3644 9.54504 22.7723 9.82589 22.138 9.90675L22.7994 10.2562L24.1826 13.7374C24.1826 13.7374 25.067 16.4153 27.6928 16.0254C30.3186 15.6354 30.6218 15.9179 30.6218 15.9179L30.7518 16.0967C30.6952 15.4433 30.8541 14.7893 31.2043 14.2347C31.5545 13.6802 32.0767 13.2556 32.691 13.0259C33.3053 12.7962 33.978 12.7741 34.6061 12.9628C35.2342 13.1516 35.7832 13.5409 36.1691 14.0712C36.555 14.6015 36.7566 15.2436 36.7431 15.8993C36.7296 16.555 36.5017 17.1883 36.0942 17.7022C35.6867 18.2161 35.1222 18.5824 34.4868 18.7451C33.8514 18.9078 33.1803 18.858 32.5759 18.6031L32.6643 18.7191L27.0118 27.2075L2.56914 16.2908Z" fill="#FDBF06"/>
<path d="M13.3539 25.7546C20.3231 28.4345 26.7008 28.7135 27.599 26.3779C28.4971 24.0422 23.5754 19.9764 16.6062 17.2965C9.63693 14.6167 3.25919 14.3377 2.36108 16.6733C1.46298 19.0089 6.38461 23.0748 13.3539 25.7546Z" fill="#FA9B01"/>
<path d="M13.6229 25.0535C20.2053 27.5846 26.1488 28.0567 26.8982 26.1079C27.6475 24.1591 22.9189 20.5275 16.3365 17.9964C9.75416 15.4653 3.81063 14.9933 3.06128 16.942C2.31193 18.8908 7.04054 22.5224 13.6229 25.0535Z" stroke="#FACF4C" stroke-width="1.50097"/>
</svg>
