<svg width="31" height="37" viewBox="0 0 31 37" fill="none" xmlns="http://www.w3.org/2000/svg">
<path d="M8.91592 35.994L8.88492 32.881C8.88452 32.8203 8.88954 32.7598 8.89992 32.7C5.98827 30.8207 3.70812 28.1103 2.35492 24.92C0.797911 21.2406 0.568962 17.1343 1.70731 13.3047C2.84566 9.47505 5.28043 6.16051 8.59442 3.92904C11.9084 1.69757 15.8953 0.68809 19.8719 1.07358C23.8485 1.45908 27.5673 3.21555 30.3909 6.04201C30.4979 6.14901 30.6049 6.25901 30.7089 6.36901C29.246 7.35429 27.8364 8.41645 26.4859 9.55101C24.7757 7.91757 22.6204 6.82669 20.2915 6.41577C17.9625 6.00485 15.5641 6.29224 13.3981 7.24177C11.2322 8.1913 9.39564 9.7605 8.11978 11.7517C6.84392 13.743 6.18579 16.0672 6.22828 18.4318C6.27078 20.7963 7.01199 23.0954 8.35857 25.0396C9.70515 26.9837 11.5969 28.4859 13.7955 29.357C15.9942 30.2281 18.4014 30.4291 20.7141 29.9348C23.0268 29.4404 25.1415 28.2728 26.7919 26.579C27.6849 27.399 28.7049 28.163 29.7849 28.972L29.7919 28.977C30.1599 29.252 30.5399 29.537 30.9239 29.83C30.7489 30.021 30.5689 30.209 30.3879 30.389C28.1079 32.6661 25.2356 34.2588 22.0965 34.9864C18.9574 35.7141 15.6772 35.5477 12.6279 34.506L10.6519 36.66C10.5602 36.7623 10.448 36.8441 10.3226 36.9001C10.1971 36.9561 10.0613 36.9851 9.92392 36.985C9.65888 36.9871 9.40383 36.884 9.21482 36.6981C9.02581 36.5123 8.9183 36.2591 8.91592 35.994Z" fill="white"/>
<path d="M17.631 23.655C20.6343 23.655 23.069 21.2203 23.069 18.217C23.069 15.2137 20.6343 12.779 17.631 12.779C14.6277 12.779 12.193 15.2137 12.193 18.217C12.193 21.2203 14.6277 23.655 17.631 23.655Z" fill="#FFBB44"/>
</svg>
