<svg width="23" height="26" viewBox="0 0 23 26" fill="none" xmlns="http://www.w3.org/2000/svg">
<g opacity="0.8">
<path opacity="0.8" d="M21.689 17.089V7.897C21.6884 7.49401 21.582 7.09826 21.3803 6.74936C21.1787 6.40046 20.8889 6.11066 20.54 5.909L12.494 1.309C12.1444 1.10713 11.7477 1.00085 11.344 1.00085C10.9403 1.00085 10.5436 1.10713 10.194 1.309L2.148 5.909C1.79929 6.11079 1.50971 6.40064 1.30824 6.74953C1.10677 7.09842 1.00047 7.49411 1 7.897V17.097C1.00197 17.4986 1.10908 17.8927 1.31066 18.2401C1.51225 18.5875 1.80128 18.876 2.149 19.077L10.195 23.677C10.5446 23.8789 10.9413 23.9851 11.345 23.9851C11.7487 23.9851 12.1454 23.8789 12.495 23.677L20.541 19.077C20.8899 18.8753 21.1797 18.5855 21.3813 18.2366C21.583 17.8877 21.6894 17.492 21.69 17.089H21.689Z" stroke="black" stroke-width="2" stroke-linecap="round" stroke-linejoin="round"/>
<path opacity="0.8" d="M1.31006 6.69901L11.3441 12.499L21.3781 6.69901" stroke="black" stroke-width="2" stroke-linecap="round" stroke-linejoin="round"/>
<path opacity="0.8" d="M11.344 24.077V12.491" stroke="black" stroke-width="2" stroke-linecap="round" stroke-linejoin="round"/>
</g>
</svg>
