<svg width="21" height="22" viewBox="0 0 21 22" fill="none" xmlns="http://www.w3.org/2000/svg">
<path opacity="0.8" d="M10.9939 0.999987C9.81844 0.994195 8.65331 1.22003 7.5651 1.66459C6.47689 2.10915 5.48691 2.76373 4.65172 3.59094C3.81652 4.41816 3.15246 5.4018 2.69746 6.48569C2.24246 7.56958 2.00545 8.73248 1.99994 9.90799C1.99663 11.9502 2.70369 13.9299 3.99994 15.508C3.05894 17.476 2.09194 19.589 2.07494 19.608C2.03615 19.661 2.01102 19.7228 2.00178 19.7879C1.99254 19.8529 1.99946 19.9192 2.02194 19.981C2.03733 20.038 2.0704 20.0887 2.1164 20.1257C2.1624 20.1627 2.21897 20.1842 2.27794 20.187C4.69094 19.245 6.01094 18.404 7.21794 17.987C8.58168 18.6178 10.0817 18.8968 11.5811 18.7986C13.0804 18.7004 14.5313 18.2281 15.8011 17.4248C17.0709 16.6216 18.1192 15.5129 18.8502 14.2002C19.5813 12.8875 19.9717 11.4125 19.9859 9.90999C19.9807 8.73448 19.7439 7.57153 19.2892 6.48754C18.8344 5.40355 18.1706 4.41976 17.3356 3.59236C16.5006 2.76496 15.5107 2.11016 14.4226 1.66536C13.3345 1.22055 12.1694 0.994459 10.9939 0.999987V0.999987Z" fill="#F0F1F3" stroke="black" stroke-width="2"/>
</svg>
