<svg width="21" height="21" viewBox="0 0 21 21" fill="none" xmlns="http://www.w3.org/2000/svg">
<g opacity="0.8">
<g opacity="0.8">
<path d="M17.368 10.093V19.186H2.81897V10.093" fill="#F2F3F5"/>
<path d="M17.368 10.093V19.186H2.81897V10.093" stroke="black" stroke-width="1.7" stroke-linecap="round" stroke-linejoin="round"/>
</g>
<path opacity="0.8" d="M1 5.547H19.187V10.094H1V5.547Z" fill="#F2F3F5" stroke="black" stroke-width="1.7" stroke-linecap="round" stroke-linejoin="round"/>
<g opacity="0.8">
<path d="M10.093 19.187V5.547Z" fill="#F2F3F5"/>
<path d="M10.093 19.187V5.547" stroke="black" stroke-width="1.7" stroke-linecap="round" stroke-linejoin="round"/>
</g>
<path opacity="0.8" d="M10.093 5.547H6.00098C5.39801 5.547 4.81974 5.30747 4.39337 4.88111C3.96701 4.45474 3.72748 3.87647 3.72748 3.2735C3.72748 2.67053 3.96701 2.09226 4.39337 1.66589C4.81974 1.23953 5.39801 1 6.00098 1C9.18398 1 10.093 5.547 10.093 5.547Z" fill="#F2F3F5" stroke="black" stroke-width="1.7" stroke-linecap="round" stroke-linejoin="round"/>
<path opacity="0.8" d="M10.093 5.547H14.185C14.788 5.547 15.3663 5.30747 15.7926 4.88111C16.219 4.45474 16.4585 3.87647 16.4585 3.2735C16.4585 2.67053 16.219 2.09226 15.7926 1.66589C15.3663 1.23953 14.788 1 14.185 1C11.002 1 10.093 5.547 10.093 5.547Z" fill="#F2F3F5" stroke="black" stroke-width="1.7" stroke-linecap="round" stroke-linejoin="round"/>
</g>
</svg>
