<svg width="27" height="28" viewBox="0 0 27 28" fill="none" xmlns="http://www.w3.org/2000/svg">
<path d="M13.2979 1.49999C11.7638 1.49248 10.2432 1.78726 8.823 2.36749C7.40279 2.94772 6.11079 3.80203 5.02079 4.88163C3.93079 5.96124 3.06413 7.24499 2.47031 8.65956C1.87649 10.0741 1.56715 11.5918 1.55994 13.126C1.55794 15.7904 2.48198 18.3727 4.17394 20.431C2.94494 22.999 1.68394 25.757 1.65994 25.785C1.60932 25.8541 1.57653 25.9345 1.56449 26.0193C1.55245 26.1041 1.56154 26.1906 1.59094 26.271C1.61134 26.3453 1.65474 26.4113 1.71492 26.4594C1.77509 26.5075 1.84896 26.5354 1.92594 26.539C5.07595 25.31 6.79695 24.212 8.37295 23.666C10.1526 24.4893 12.1102 24.8536 14.0669 24.7255C16.0236 24.5974 17.917 23.9811 19.5742 22.9329C21.2314 21.8847 22.5995 20.4379 23.5536 18.7248C24.5077 17.0117 25.0173 15.0868 25.0359 13.126C25.0287 11.5918 24.7194 10.0741 24.1256 8.65956C23.5318 7.24499 22.6651 5.96124 21.5751 4.88163C20.4851 3.80203 19.1931 2.94772 17.7729 2.36749C16.3527 1.78726 14.8321 1.49248 13.2979 1.49999V1.49999Z" stroke="white" stroke-width="2"/>
</svg>
