<svg width="16" height="25" viewBox="0 0 16 25" fill="none" xmlns="http://www.w3.org/2000/svg">
<path opacity="0.8" d="M8.16197 19.641L3.91897 22.551V14.551H6.09497C4.48207 14.1147 3.08256 13.1073 2.15677 11.7164C1.23098 10.3254 0.841945 8.64556 1.06202 6.98924C1.2821 5.33292 2.09632 3.81293 3.35321 2.712C4.6101 1.61106 6.22409 1.00415 7.89497 1.00415C9.56585 1.00415 11.1798 1.61106 12.4367 2.712C13.6936 3.81293 14.5078 5.33292 14.7279 6.98924C14.948 8.64556 14.559 10.3254 13.6332 11.7164C12.7074 13.1073 11.3079 14.1147 9.69497 14.551H12.167V22.551L8.16197 19.641Z" fill="#F2F3F5" stroke="black" stroke-width="1.7"/>
</svg>
